<?xml version="1.0" encoding="UTF-8" standalone="no"?>
<!DOCTYPE svg PUBLIC "-//W3C//DTD SVG 1.1//EN"
 "http://www.w3.org/Graphics/SVG/1.1/DTD/svg11.dtd">
<!-- Generated by graphviz version 2.40.1 (20161225.0304)
 -->
<!-- Title: Tree Pages: 1 -->
<svg width="200pt" height="302pt"
 viewBox="0.00 0.00 200.00 302.00" xmlns="http://www.w3.org/2000/svg" xmlns:xlink="http://www.w3.org/1999/xlink">
<g id="graph0" class="graph" transform="scale(1 1) rotate(0) translate(4 298)">
<title>Tree</title>
<polygon fill="#ffffff" stroke="transparent" points="-4,4 -4,-298 196,-298 196,4 -4,4"/>
<!-- 0 -->
<g id="node1" class="node">
<title>0</title>
<polygon fill="transparent" stroke="#000000" points="125.5381,-294 20.4619,-294 20.4619,-244 125.5381,-244 125.5381,-294"/>
<text text-anchor="middle" x="73" y="-278.8" font-family="Times,serif" font-size="14.00" fill="#000000">X[0] &lt;= &#45;0.254</text>
<text text-anchor="middle" x="73" y="-264.8" font-family="Times,serif" font-size="14.00" fill="#000000">samples = 63</text>
<text text-anchor="middle" x="73" y="-250.8" font-family="Times,serif" font-size="14.00" fill="#000000">value = [50, 50]</text>
</g>
<!-- 1 -->
<g id="node2" class="node">
<title>1</title>
<polygon fill="#e58139" fill-opacity="0.964706" stroke="#000000" points="54,-201 0,-201 0,-165 54,-165 54,-201"/>
<text text-anchor="middle" x="27" y="-185.8" font-family="Times,serif" font-size="14.00" fill="#000000">15</text>
<text text-anchor="middle" x="27" y="-171.8" font-family="Times,serif" font-size="14.00" fill="#000000">[27, 1]</text>
</g>
<!-- 0&#45;&gt;1 -->
<g id="edge1" class="edge">
<title>0&#45;&gt;1</title>
<path fill="none" stroke="#000000" d="M59.4473,-243.6623C53.79,-233.0857 47.2097,-220.7834 41.4596,-210.0331"/>
<polygon fill="#000000" stroke="#000000" points="44.467,-208.2348 36.6641,-201.0677 38.2945,-211.5364 44.467,-208.2348"/>
<text text-anchor="middle" x="29.4139" y="-220.7933" font-family="Times,serif" font-size="14.00" fill="#000000">True</text>
</g>
<!-- 2 -->
<g id="node3" class="node">
<title>2</title>
<polygon fill="#399de5" fill-opacity="0.529412" stroke="#000000" points="168.226,-208 71.774,-208 71.774,-158 168.226,-158 168.226,-208"/>
<text text-anchor="middle" x="120" y="-192.8" font-family="Times,serif" font-size="14.00" fill="#000000">X[1] &lt;= 0.679</text>
<text text-anchor="middle" x="120" y="-178.8" font-family="Times,serif" font-size="14.00" fill="#000000">48</text>
<text text-anchor="middle" x="120" y="-164.8" font-family="Times,serif" font-size="14.00" fill="#000000">[23, 49]</text>
</g>
<!-- 0&#45;&gt;2 -->
<g id="edge2" class="edge">
<title>0&#45;&gt;2</title>
<path fill="none" stroke="#000000" d="M86.8473,-243.6623C91.3892,-235.3516 96.5133,-225.9756 101.3508,-217.1242"/>
<polygon fill="#000000" stroke="#000000" points="104.5272,-218.6102 106.2516,-208.1566 98.3846,-215.2532 104.5272,-218.6102"/>
<text text-anchor="middle" x="113.2863" y="-227.9465" font-family="Times,serif" font-size="14.00" fill="#000000">False</text>
</g>
<!-- 3 -->
<g id="node4" class="node">
<title>3</title>
<polygon fill="#399de5" fill-opacity="0.811765" stroke="#000000" points="119.726,-122 30.274,-122 30.274,-72 119.726,-72 119.726,-122"/>
<text text-anchor="middle" x="75" y="-106.8" font-family="Times,serif" font-size="14.00" fill="#000000">X[1] &lt;= 0.09</text>
<text text-anchor="middle" x="75" y="-92.8" font-family="Times,serif" font-size="14.00" fill="#000000">37</text>
<text text-anchor="middle" x="75" y="-78.8" font-family="Times,serif" font-size="14.00" fill="#000000">[9, 48]</text>
</g>
<!-- 2&#45;&gt;3 -->
<g id="edge3" class="edge">
<title>2&#45;&gt;3</title>
<path fill="none" stroke="#000000" d="M106.7419,-157.6623C102.3933,-149.3516 97.4872,-139.9756 92.8557,-131.1242"/>
<polygon fill="#000000" stroke="#000000" points="95.9007,-129.3942 88.1633,-122.1566 89.6985,-132.6396 95.9007,-129.3942"/>
</g>
<!-- 4 -->
<g id="node7" class="node">
<title>4</title>
<polygon fill="#e58139" fill-opacity="0.929412" stroke="#000000" points="192,-115 138,-115 138,-79 192,-79 192,-115"/>
<text text-anchor="middle" x="165" y="-99.8" font-family="Times,serif" font-size="14.00" fill="#000000">11</text>
<text text-anchor="middle" x="165" y="-85.8" font-family="Times,serif" font-size="14.00" fill="#000000">[14, 1]</text>
</g>
<!-- 2&#45;&gt;4 -->
<g id="edge6" class="edge">
<title>2&#45;&gt;4</title>
<path fill="none" stroke="#000000" d="M133.2581,-157.6623C138.7924,-147.0857 145.2296,-134.7834 150.8548,-124.0331"/>
<polygon fill="#000000" stroke="#000000" points="154.0108,-125.5508 155.546,-115.0677 147.8086,-122.3054 154.0108,-125.5508"/>
</g>
<!-- 5 -->
<g id="node5" class="node">
<title>5</title>
<polygon fill="#399de5" stroke="#000000" points="66,-36 12,-36 12,0 66,0 66,-36"/>
<text text-anchor="middle" x="39" y="-20.8" font-family="Times,serif" font-size="14.00" fill="#000000">19</text>
<text text-anchor="middle" x="39" y="-6.8" font-family="Times,serif" font-size="14.00" fill="#000000">[0, 27]</text>
</g>
<!-- 3&#45;&gt;5 -->
<g id="edge4" class="edge">
<title>3&#45;&gt;5</title>
<path fill="none" stroke="#000000" d="M63.4112,-71.5691C59.5881,-63.1794 55.321,-53.8156 51.4372,-45.2928"/>
<polygon fill="#000000" stroke="#000000" points="54.5908,-43.7726 47.2591,-36.1242 48.221,-46.6753 54.5908,-43.7726"/>
</g>
<!-- 6 -->
<g id="node6" class="node">
<title>6</title>
<polygon fill="#399de5" fill-opacity="0.572549" stroke="#000000" points="138,-36 84,-36 84,0 138,0 138,-36"/>
<text text-anchor="middle" x="111" y="-20.8" font-family="Times,serif" font-size="14.00" fill="#000000">18</text>
<text text-anchor="middle" x="111" y="-6.8" font-family="Times,serif" font-size="14.00" fill="#000000">[9, 21]</text>
</g>
<!-- 3&#45;&gt;6 -->
<g id="edge5" class="edge">
<title>3&#45;&gt;6</title>
<path fill="none" stroke="#000000" d="M86.5888,-71.5691C90.4119,-63.1794 94.679,-53.8156 98.5628,-45.2928"/>
<polygon fill="#000000" stroke="#000000" points="101.779,-46.6753 102.7409,-36.1242 95.4092,-43.7726 101.779,-46.6753"/>
</g>
</g>
</svg>
