<?xml version="1.0" encoding="UTF-8" standalone="no"?>
<!DOCTYPE svg PUBLIC "-//W3C//DTD SVG 1.1//EN"
 "http://www.w3.org/Graphics/SVG/1.1/DTD/svg11.dtd">
<!-- Generated by graphviz version 2.40.1 (20161225.0304)
 -->
<!-- Title: Tree Pages: 1 -->
<svg width="300pt" height="216pt"
 viewBox="0.00 0.00 300.00 216.00" xmlns="http://www.w3.org/2000/svg" xmlns:xlink="http://www.w3.org/1999/xlink">
<g id="graph0" class="graph" transform="scale(1 1) rotate(0) translate(4 212)">
<title>Tree</title>
<polygon fill="#ffffff" stroke="transparent" points="-4,4 -4,-212 296,-212 296,4 -4,4"/>
<!-- 0 -->
<g id="node1" class="node">
<title>0</title>
<polygon fill="#399de5" fill-opacity="0.149020" stroke="#000000" points="197.5381,-208 92.4619,-208 92.4619,-158 197.5381,-158 197.5381,-208"/>
<text text-anchor="middle" x="145" y="-192.8" font-family="Times,serif" font-size="14.00" fill="#000000">X[1] &lt;= 0.372</text>
<text text-anchor="middle" x="145" y="-178.8" font-family="Times,serif" font-size="14.00" fill="#000000">samples = 65</text>
<text text-anchor="middle" x="145" y="-164.8" font-family="Times,serif" font-size="14.00" fill="#000000">value = [46, 54]</text>
</g>
<!-- 1 -->
<g id="node2" class="node">
<title>1</title>
<polygon fill="#399de5" fill-opacity="0.831373" stroke="#000000" points="137.8884,-122 36.1116,-122 36.1116,-72 137.8884,-72 137.8884,-122"/>
<text text-anchor="middle" x="87" y="-106.8" font-family="Times,serif" font-size="14.00" fill="#000000">X[0] &lt;= &#45;0.418</text>
<text text-anchor="middle" x="87" y="-92.8" font-family="Times,serif" font-size="14.00" fill="#000000">36</text>
<text text-anchor="middle" x="87" y="-78.8" font-family="Times,serif" font-size="14.00" fill="#000000">[8, 47]</text>
</g>
<!-- 0&#45;&gt;1 -->
<g id="edge1" class="edge">
<title>0&#45;&gt;1</title>
<path fill="none" stroke="#000000" d="M127.9118,-157.6623C122.1889,-149.1767 115.717,-139.5803 109.6374,-130.5658"/>
<polygon fill="#000000" stroke="#000000" points="112.4593,-128.4903 103.9661,-122.1566 106.6558,-132.4043 112.4593,-128.4903"/>
<text text-anchor="middle" x="99.1943" y="-142.497" font-family="Times,serif" font-size="14.00" fill="#000000">True</text>
</g>
<!-- 2 -->
<g id="node5" class="node">
<title>2</title>
<polygon fill="#e58139" fill-opacity="0.815686" stroke="#000000" points="252.226,-122 155.774,-122 155.774,-72 252.226,-72 252.226,-122"/>
<text text-anchor="middle" x="204" y="-106.8" font-family="Times,serif" font-size="14.00" fill="#000000">X[1] &lt;= 0.938</text>
<text text-anchor="middle" x="204" y="-92.8" font-family="Times,serif" font-size="14.00" fill="#000000">29</text>
<text text-anchor="middle" x="204" y="-78.8" font-family="Times,serif" font-size="14.00" fill="#000000">[38, 7]</text>
</g>
<!-- 0&#45;&gt;2 -->
<g id="edge4" class="edge">
<title>0&#45;&gt;2</title>
<path fill="none" stroke="#000000" d="M162.3828,-157.6623C168.2044,-149.1767 174.7879,-139.5803 180.9723,-130.5658"/>
<polygon fill="#000000" stroke="#000000" points="183.9703,-132.3826 186.7414,-122.1566 178.1981,-128.4226 183.9703,-132.3826"/>
<text text-anchor="middle" x="191.3179" y="-142.5341" font-family="Times,serif" font-size="14.00" fill="#000000">False</text>
</g>
<!-- 3 -->
<g id="node3" class="node">
<title>3</title>
<polygon fill="#e58139" stroke="#000000" points="54,-36 0,-36 0,0 54,0 54,-36"/>
<text text-anchor="middle" x="27" y="-20.8" font-family="Times,serif" font-size="14.00" fill="#000000">3</text>
<text text-anchor="middle" x="27" y="-6.8" font-family="Times,serif" font-size="14.00" fill="#000000">[3, 0]</text>
</g>
<!-- 1&#45;&gt;3 -->
<g id="edge2" class="edge">
<title>1&#45;&gt;3</title>
<path fill="none" stroke="#000000" d="M67.6854,-71.5691C61.0394,-62.8185 53.5886,-53.0083 46.8971,-44.1978"/>
<polygon fill="#000000" stroke="#000000" points="49.6008,-41.9709 40.7652,-36.1242 44.0263,-46.2047 49.6008,-41.9709"/>
</g>
<!-- 4 -->
<g id="node4" class="node">
<title>4</title>
<polygon fill="#399de5" fill-opacity="0.894118" stroke="#000000" points="126,-36 72,-36 72,0 126,0 126,-36"/>
<text text-anchor="middle" x="99" y="-20.8" font-family="Times,serif" font-size="14.00" fill="#000000">33</text>
<text text-anchor="middle" x="99" y="-6.8" font-family="Times,serif" font-size="14.00" fill="#000000">[5, 47]</text>
</g>
<!-- 1&#45;&gt;4 -->
<g id="edge3" class="edge">
<title>1&#45;&gt;4</title>
<path fill="none" stroke="#000000" d="M90.8629,-71.5691C92.0962,-63.45 93.468,-54.4187 94.7286,-46.1201"/>
<polygon fill="#000000" stroke="#000000" points="98.2054,-46.5364 96.247,-36.1242 91.2848,-45.4851 98.2054,-46.5364"/>
</g>
<!-- 5 -->
<g id="node6" class="node">
<title>5</title>
<polygon fill="#e58139" fill-opacity="0.721569" stroke="#000000" points="220,-36 166,-36 166,0 220,0 220,-36"/>
<text text-anchor="middle" x="193" y="-20.8" font-family="Times,serif" font-size="14.00" fill="#000000">22</text>
<text text-anchor="middle" x="193" y="-6.8" font-family="Times,serif" font-size="14.00" fill="#000000">[25, 7]</text>
</g>
<!-- 2&#45;&gt;5 -->
<g id="edge5" class="edge">
<title>2&#45;&gt;5</title>
<path fill="none" stroke="#000000" d="M200.459,-71.5691C199.3285,-63.45 198.071,-54.4187 196.9155,-46.1201"/>
<polygon fill="#000000" stroke="#000000" points="200.3694,-45.5459 195.5236,-36.1242 193.4363,-46.5114 200.3694,-45.5459"/>
</g>
<!-- 6 -->
<g id="node7" class="node">
<title>6</title>
<polygon fill="#e58139" stroke="#000000" points="292,-36 238,-36 238,0 292,0 292,-36"/>
<text text-anchor="middle" x="265" y="-20.8" font-family="Times,serif" font-size="14.00" fill="#000000">7</text>
<text text-anchor="middle" x="265" y="-6.8" font-family="Times,serif" font-size="14.00" fill="#000000">[13, 0]</text>
</g>
<!-- 2&#45;&gt;6 -->
<g id="edge6" class="edge">
<title>2&#45;&gt;6</title>
<path fill="none" stroke="#000000" d="M223.6366,-71.5691C230.3933,-62.8185 237.9682,-53.0083 244.7713,-44.1978"/>
<polygon fill="#000000" stroke="#000000" points="247.664,-46.1784 251.0054,-36.1242 242.1234,-41.9002 247.664,-46.1784"/>
</g>
</g>
</svg>
